<svg xmlns="http://www.w3.org/2000/svg" viewBox="0 0 1280 360" role="img" aria-labelledby="title">
  <title id="title">Shared Secrets: self-destructing secret links for Filament</title>
  <defs>
    <linearGradient id="background" x1="0" y1="0" x2="1" y2="1">
      <stop offset="0" stop-color="#fbbf24"/>
      <stop offset="1" stop-color="#ea580c"/>
    </linearGradient>
  </defs>
  <rect width="1280" height="360" rx="32" fill="#18181b"/>
  <svg x="96" y="80" width="200" height="200" viewBox="0 0 512 512">
    <rect width="512" height="512" rx="112" fill="url(#background)"/>
    <g fill="#fff">
      <path fill-rule="evenodd" d="M164 172a84 84 0 1 1 0 168 84 84 0 0 1 0-168Zm0 44a40 40 0 1 0 0 80 40 40 0 0 0 0-80Z"/>
      <path d="M236 236h108a20 20 0 0 1 0 40h-4v24a12 12 0 0 1-24 0v-24h-16v40a12 12 0 0 1-24 0v-40h-40Z"/>
      <circle cx="400" cy="256" r="16" opacity=".85"/>
      <circle cx="440" cy="256" r="11" opacity=".6"/>
      <circle cx="470" cy="256" r="7" opacity=".35"/>
    </g>
  </svg>
  <g font-family="system-ui, -apple-system, 'Segoe UI', Helvetica, Arial, sans-serif">
    <text x="352" y="188" font-size="92" font-weight="700" letter-spacing="-2" fill="#fff">Shared Secrets</text>
    <text x="356" y="248" font-size="34" fill="#a1a1aa">Self-destructing secret links for Filament</text>
  </g>
</svg>
